<svg width="13" height="8" viewBox="0 0 13 8" fill="none" xmlns="http://www.w3.org/2000/svg">
<path opacity="0.9" fill-rule="evenodd" clip-rule="evenodd" d="M0.135417 3.61106C0.0451385 3.70535 0 3.83499 0 4C0 4.16501 0.0507808 4.30054 0.152344 4.40662C0.253907 4.5127 0.38368 4.56573 0.541667 4.56573H11.138L8.83594 7.00545C8.5651 7.26475 8.55946 7.52993 8.81901 7.80101C9.07856 8.0721 9.33246 8.0662 9.58073 7.78334L12.8307 4.38894C12.8984 4.3418 12.9436 4.28287 12.9661 4.21215C12.9887 4.14143 13 4.07072 13 4C13 3.92928 12.9887 3.85857 12.9661 3.78785C12.9436 3.71713 12.8984 3.6582 12.8307 3.61106L9.58073 0.216665C9.33246 -0.0662033 9.07856 -0.072096 8.81901 0.198985C8.55946 0.470068 8.5651 0.735252 8.83594 0.994547L11.138 3.43427H0.541667C0.38368 3.43427 0.248264 3.4932 0.135417 3.61106Z" fill="white"/>
</svg>
